<?xml version="1.0"?>
<svg width="40" height="40" xmlns="http://www.w3.org/2000/svg" xmlns:svg="http://www.w3.org/2000/svg">
 <g class="layer">
  <title>Layer 1</title>
  <path d="m14.65,23.62l0,-7.24a1.29,1.29 0 0 1 1.29,-1.32l0.14,0a1.32,1.32 0 0 1 1.32,1.32l0,7.24a1.32,1.32 0 0 1 -1.32,1.32l-0.15,0a1.29,1.29 0 0 1 -1.29,-1.32m16.65,-7.7l2.93,4.76c0.63,1 0.78,1.3 0.78,2.06a2.17,2.17 0 0 1 -2,2.11l-4,0a1.24,1.24 0 0 1 -1.31,-1.22l0,-0.08a1.31,1.31 0 0 1 1.31,-1.3l2.42,0c0.15,0 0.25,0 0.29,-0.12a0.27,0.27 0 0 0 0,-0.28l-1.73,-2.77s-0.06,-0.11 -0.11,-0.11s-0.09,0.06 -0.12,0.11l-2.64,4.53c-0.41,0.72 -0.89,1.24 -1.61,1.24l-5.11,0a2.07,2.07 0 0 1 -1.93,-1.93l0,-6.55a1.3,1.3 0 0 1 1.3,-1.3l0.17,0a1.3,1.3 0 0 1 1.3,1.3l0,5.35a0.34,0.34 0 0 0 0.35,0.36l2.53,0a1,1 0 0 0 0.94,-0.55l3.39,-5.61a1.62,1.62 0 0 1 1.45,-0.82a1.55,1.55 0 0 1 1.4,0.82m-23.16,5.54a0.36,0.36 0 0 0 -0.36,0.36l0,1.82a1.3,1.3 0 0 1 -1.3,1.3l-0.17,0a1.3,1.3 0 0 1 -1.3,-1.3l0,-3.32a1.53,1.53 0 0 1 1.55,-1.55l5.3,0a1.3,1.3 0 0 1 1.3,1.3l0,0.09a1.3,1.3 0 0 1 -1.3,1.3l-3.72,0z" fill="#4d4d4d" id="svg_1"/>
  <path d="m6.32,15.25l6.17,0a1.29,1.29 0 0 1 1.32,1.29l0,0.08a1.32,1.32 0 0 1 -1.32,1.32l-6.17,0a1.32,1.32 0 0 1 -1.32,-1.32l0,-0.09a1.29,1.29 0 0 1 1.32,-1.28" fill="#4d4d4d" id="svg_2"/>
 </g>
</svg>